<svg height='100px' width='100px'  fill="#ffffff" xmlns:dc="http://purl.org/dc/elements/1.1/" xmlns:cc="http://creativecommons.org/ns#" xmlns:rdf="http://www.w3.org/1999/02/22-rdf-syntax-ns#" xmlns:svg="http://www.w3.org/2000/svg" xmlns="http://www.w3.org/2000/svg" xmlns:sodipodi="http://sodipodi.sourceforge.net/DTD/sodipodi-0.dtd" xmlns:inkscape="http://www.inkscape.org/namespaces/inkscape" version="1.1" x="0px" y="0px" viewBox="0 0 100 100"><g transform="translate(0,-952.36218)"><path style="opacity:1;color:#000000;fill:#ffffff;fill-opacity:1;fill-rule:nonzero;stroke:none;stroke-width:4;marker:none;visibility:visible;display:inline;overflow:visible;enable-background:accumulate" d="M 50 26 C 42.268007 26 36 32.268 36 40 C 36 44.6705 38.4847 48.4566 42 51 C 32.2166 54.2562 25 63.4998 25 74 L 75 74 C 75 63.4998 67.7834 54.2562 58 51 C 61.5153 48.4566 64 44.6705 64 40 C 64 32.268 57.731993 26 50 26 z M 30 28 C 23.195846 28 18 33.2345 18 40 C 18 44.0866 19.906535 47.7745 23 50 C 14.390608 52.8491 8 60.8123 8 70 L 21.3125 70 C 22.602483 61.425692 27.948499 54.049477 35.3125 49.75 C 33.336697 47.0043 32 43.74422 32 40 C 32 36.019386 33.318388 32.334136 35.53125 29.34375 C 33.867755 28.495985 31.973771 28 30 28 z M 70 28 C 68.026229 28 66.132245 28.495985 64.46875 29.34375 C 66.681612 32.334136 68 36.019386 68 40 C 68 43.74422 66.663303 47.0043 64.6875 49.75 C 72.051501 54.049477 77.397517 61.425692 78.6875 70 L 92 70 C 92 60.8123 85.60939 52.8491 77 50 C 80.09346 47.7745 82 44.0866 82 40 C 82 33.2345 76.804151 28 70 28 z " transform="translate(0,952.36218)"></path></g></svg>